<?xml version="1.0" encoding="UTF-8"?>
<svg width="320px" height="225px" viewBox="0 0 320 225" version="1.1" xmlns="http://www.w3.org/2000/svg" xmlns:xlink="http://www.w3.org/1999/xlink">
    <!-- Generator: Sketch 50.2 (55047) - http://www.bohemiancoding.com/sketch -->
    <title>Group 33</title>
    <desc>Created with Sketch.</desc>
    <defs>
        <rect id="path-1" x="0" y="0" width="320" height="225"></rect>
    </defs>
    <g id="Page-1" stroke="none" stroke-width="1" fill="none" fill-rule="evenodd">
        <g id="BWS-Copy-98">
            <g id="Group-33">
                <mask id="mask-2" fill="white">
                    <use xlink:href="#path-1"></use>
                </mask>
                <use id="Rectangle-6" fill="#37C2AA" xlink:href="#path-1"></use>
                <path d="M134.032,61.2 L167.296,162 L145.696,162 L137.056,134.496 L106.672,134.496 L98.608,162 L77.584,162 L110.128,61.2 L134.032,61.2 Z M132.016,117.36 L121.936,82.8 L121.648,82.8 L111.424,117.36 L132.016,117.36 Z M200.272,150.048 C207.04,150.048 213.088,146.592 213.088,138.384 L213.088,133.632 C211.936,134.784 209.92,135.072 207.328,135.072 L200.272,135.072 C194.368,135.072 190.912,137.664 190.912,142.272 C190.912,146.736 194.512,150.048 200.272,150.048 Z M213.088,118.8 L213.088,118.08 C213.088,113.328 209.344,110.304 202.144,110.304 C195.52,110.304 187.168,113.616 182.272,116.496 L174.928,102.384 C174.928,102.384 187.168,94.32 203.152,94.32 C218.128,94.32 231.808,101.232 231.808,118.656 L231.808,162 L213.088,162 L213.088,155.808 C209.632,160.992 202.144,163.728 194.656,163.728 C180.688,163.728 171.616,153.792 171.616,142.992 C171.616,130.464 180.832,122.688 195.52,122.688 L208.48,122.688 C211.648,122.688 213.088,121.248 213.088,118.8 Z" id="Aa" fill="#FFFFFF" mask="url(#mask-2)"></path>
            </g>
        </g>
    </g>
</svg>